# xmcd
#
# Track frame offsets:
#	150
#	12859
#	24636
#	37701
#	49561
#	62227
#	75277
#	87092
#	99760
#	121519
#	135975
#	149177
#	163048
#	175420
#	187724
#	200278
#	211832
#	224344
#	236976
#	252107
#
# Disc length: 3525 seconds
#
# Revision: 0
# Processed by: cddbd v1.5.2PL0 Copyright (c) Steve Scherf et al.
# Submitted via: audiograbber 1.83.01
#
DISCID=fc0dc314
DTITLE=Big Joe Turner - Blues Archive 10_CD2
DYEAR=1940
DGENRE=Blues
TTITLE0=Roll 'Em Pete (1938)
TTITLE1=Goin' Away Blues (1938)
TTITLE2=Cherry Red (1939)
TTITLE3=It's All Right Baby (1938)
TTITLE4=Careless Love (1940)
TTITLE5=Piney Brown Blues (1940)
TTITLE6=Blues On Central Avenue (1941)
TTITLE7=Sun Risin' Blues (1941)
TTITLE8=I'm A Lovin' Man (1945)
TTITLE9=My Gal's A Jockey (1946)
TTITLE10=Sally Zu-Zazz-Blues (1946)
TTITLE11=New Oo-Wee Baby Blues (Wee Baby Blues) (1946)
TTITLE12=Hollywood Bed (Cherry Red Blues) (1947)
TTITLE13=Radar Blues (1948)
TTITLE14=Tell My Pretty Baby (1948)
TTITLE15=Wine-O-Baby Boogie (1948)
TTITLE16=Jumpin' At The Jubilee (1950)
TTITLE17=Still In The Dark (1951)
TTITLE18=Chains Of Love (1951)
TTITLE19=The Chill Is On (1951)
EXTD=
EXTT0=
EXTT1=
EXTT2=
EXTT3=
EXTT4=
EXTT5=
EXTT6=
EXTT7=
EXTT8=
EXTT9=
EXTT10=
EXTT11=
EXTT12=
EXTT13=
EXTT14=
EXTT15=
EXTT16=
EXTT17=
EXTT18=
EXTT19=by cml Ledeburgh 2018
PLAYORDER=
